<svg width="24" height="24" viewBox="0 0 24 24" fill="none" xmlns="http://www.w3.org/2000/svg">
<path d="M19.3 16.5L16.1 13.3C16.2334 13.0167 16.3334 12.729 16.4 12.437C16.4667 12.145 16.5 11.8327 16.5 11.5C16.5 10.25 16.0627 9.18734 15.188 8.31201C14.3134 7.43667 13.2507 6.99934 12 7.00001C11.6667 7.00001 11.354 7.03334 11.062 7.10001C10.77 7.16667 10.4827 7.26667 10.2 7.40001L7.65005 4.85001C8.33338 4.56667 9.03338 4.35434 9.75005 4.21301C10.4667 4.07167 11.2167 4.00067 12 4.00001C14.3834 4.00001 16.525 4.62934 18.425 5.88801C20.325 7.14667 21.7501 8.78401 22.7001 10.8C22.7501 10.8833 22.7834 10.9877 22.8 11.113C22.8167 11.2383 22.8251 11.3673 22.8251 11.5C22.8251 11.6333 22.8127 11.7627 22.788 11.888C22.7634 12.0133 22.7341 12.1173 22.7001 12.2C22.3167 13.05 21.8377 13.8417 21.2631 14.575C20.6884 15.3083 20.034 15.95 19.3 16.5ZM19.1 21.9L15.6 18.45C15.0167 18.6333 14.4294 18.771 13.838 18.863C13.2467 18.955 12.634 19.0007 12 19C9.61672 19 7.47505 18.3707 5.57505 17.112C3.67505 15.8533 2.25005 14.216 1.30005 12.2C1.25005 12.1167 1.21672 12.0127 1.20005 11.888C1.18338 11.7633 1.17505 11.634 1.17505 11.5C1.17505 11.3667 1.18338 11.2417 1.20005 11.125C1.21672 11.0083 1.25005 10.9083 1.30005 10.825C1.65005 10.075 2.06672 9.38334 2.55005 8.75001C3.03338 8.11667 3.56672 7.53334 4.15005 7.00001L2.07505 4.90001C1.89172 4.71667 1.80005 4.48734 1.80005 4.21201C1.80005 3.93667 1.90005 3.69934 2.10005 3.50001C2.28338 3.31667 2.51672 3.22501 2.80005 3.22501C3.08338 3.22501 3.31672 3.31667 3.50005 3.50001L20.5 20.5C20.6834 20.6833 20.7794 20.9127 20.788 21.188C20.7967 21.4633 20.7007 21.7007 20.5 21.9C20.3167 22.0833 20.0834 22.175 19.8 22.175C19.5167 22.175 19.2834 22.0833 19.1 21.9ZM12 16C12.1834 16 12.3544 15.9917 12.513 15.975C12.6717 15.9583 12.8424 15.925 13.025 15.875L7.62505 10.475C7.57505 10.6583 7.54172 10.8293 7.52505 10.988C7.50838 11.1467 7.50005 11.3173 7.50005 11.5C7.50005 12.75 7.93772 13.8127 8.81305 14.688C9.68838 15.5633 10.7507 16.0007 12 16ZM14.65 11.85L11.65 8.85001C12.6 8.70001 13.375 8.96667 13.975 9.65001C14.575 10.3333 14.8 11.0667 14.65 11.85Z" fill="black"/>
</svg>
